<mxfile host="app.diagrams.net" modified="2024-01-24T13:54:37.113Z" agent="Mozilla/5.0 (Windows NT 10.0; Win64; x64) AppleWebKit/537.36 (KHTML, like Gecko) Chrome/120.0.0.0 Safari/537.36 Edg/120.0.0.0" etag="kh1Uf2aWH3OqODc9O8DR" version="23.0.0" type="github">
  <diagram id="R2lEEEUBdFMjLlhIrx00" name="Page-1">
    <mxGraphModel dx="1330" dy="1203" grid="1" gridSize="10" guides="1" tooltips="1" connect="1" arrows="1" fold="1" page="1" pageScale="1" pageWidth="850" pageHeight="1100" math="0" shadow="0" extFonts="Permanent Marker^https://fonts.googleapis.com/css?family=Permanent+Marker">
      <root>
        <mxCell id="0" />
        <mxCell id="1" parent="0" />
        <mxCell id="eqRMLn1STed8k_l_ULK4-14" value="" style="edgeStyle=orthogonalEdgeStyle;rounded=0;orthogonalLoop=1;jettySize=auto;html=1;fillColor=#A9C4EB;endArrow=none;" edge="1" parent="1" source="eqRMLn1STed8k_l_ULK4-3" target="eqRMLn1STed8k_l_ULK4-13">
          <mxGeometry relative="1" as="geometry" />
        </mxCell>
        <mxCell id="eqRMLn1STed8k_l_ULK4-66" style="edgeStyle=orthogonalEdgeStyle;rounded=0;orthogonalLoop=1;jettySize=auto;html=1;fillColor=#A9C4EB;endArrow=none;" edge="1" parent="1" source="eqRMLn1STed8k_l_ULK4-3" target="eqRMLn1STed8k_l_ULK4-64">
          <mxGeometry relative="1" as="geometry" />
        </mxCell>
        <mxCell id="eqRMLn1STed8k_l_ULK4-3" value="Customer" style="rounded=0;whiteSpace=wrap;html=1;fillColor=#FFD966;" vertex="1" parent="1">
          <mxGeometry x="1580" y="140" width="120" height="60" as="geometry" />
        </mxCell>
        <mxCell id="eqRMLn1STed8k_l_ULK4-4" style="edgeStyle=orthogonalEdgeStyle;rounded=0;orthogonalLoop=1;jettySize=auto;html=1;entryX=0.25;entryY=0;entryDx=0;entryDy=0;fillColor=#A9C4EB;endArrow=none;" edge="1" parent="1" source="eqRMLn1STed8k_l_ULK4-5" target="eqRMLn1STed8k_l_ULK4-3">
          <mxGeometry relative="1" as="geometry" />
        </mxCell>
        <mxCell id="eqRMLn1STed8k_l_ULK4-5" value="&lt;u&gt;CustomerID&lt;/u&gt;" style="ellipse;whiteSpace=wrap;html=1;fillColor=#A9C4EB;" vertex="1" parent="1">
          <mxGeometry x="1450" y="100" width="120" height="40" as="geometry" />
        </mxCell>
        <mxCell id="eqRMLn1STed8k_l_ULK4-6" style="edgeStyle=orthogonalEdgeStyle;rounded=0;orthogonalLoop=1;jettySize=auto;html=1;entryX=0.75;entryY=0;entryDx=0;entryDy=0;fillColor=#A9C4EB;endArrow=none;" edge="1" parent="1" source="eqRMLn1STed8k_l_ULK4-7" target="eqRMLn1STed8k_l_ULK4-3">
          <mxGeometry relative="1" as="geometry" />
        </mxCell>
        <mxCell id="eqRMLn1STed8k_l_ULK4-7" value="Email Address" style="ellipse;whiteSpace=wrap;html=1;fillColor=#A9C4EB;" vertex="1" parent="1">
          <mxGeometry x="1710" y="100" width="120" height="40" as="geometry" />
        </mxCell>
        <mxCell id="eqRMLn1STed8k_l_ULK4-12" style="edgeStyle=orthogonalEdgeStyle;rounded=0;orthogonalLoop=1;jettySize=auto;html=1;entryX=0.75;entryY=1;entryDx=0;entryDy=0;fillColor=#A9C4EB;endArrow=none;" edge="1" parent="1" source="eqRMLn1STed8k_l_ULK4-9" target="eqRMLn1STed8k_l_ULK4-3">
          <mxGeometry relative="1" as="geometry" />
        </mxCell>
        <mxCell id="eqRMLn1STed8k_l_ULK4-9" value="Name" style="ellipse;whiteSpace=wrap;html=1;fillColor=#A9C4EB;" vertex="1" parent="1">
          <mxGeometry x="1710" y="200" width="120" height="40" as="geometry" />
        </mxCell>
        <mxCell id="eqRMLn1STed8k_l_ULK4-10" style="edgeStyle=orthogonalEdgeStyle;rounded=0;orthogonalLoop=1;jettySize=auto;html=1;entryX=0.25;entryY=1;entryDx=0;entryDy=0;fillColor=#A9C4EB;endArrow=none;" edge="1" parent="1" source="eqRMLn1STed8k_l_ULK4-11" target="eqRMLn1STed8k_l_ULK4-3">
          <mxGeometry relative="1" as="geometry" />
        </mxCell>
        <mxCell id="eqRMLn1STed8k_l_ULK4-11" value="Postal Address" style="ellipse;whiteSpace=wrap;html=1;fillColor=#A9C4EB;" vertex="1" parent="1">
          <mxGeometry x="1450" y="200" width="120" height="40" as="geometry" />
        </mxCell>
        <mxCell id="eqRMLn1STed8k_l_ULK4-73" value="" style="edgeStyle=orthogonalEdgeStyle;rounded=0;orthogonalLoop=1;jettySize=auto;html=1;endArrow=none;fillColor=#A9C4EB;" edge="1" parent="1" source="eqRMLn1STed8k_l_ULK4-13" target="eqRMLn1STed8k_l_ULK4-69">
          <mxGeometry relative="1" as="geometry" />
        </mxCell>
        <mxCell id="eqRMLn1STed8k_l_ULK4-13" value="place" style="rhombus;whiteSpace=wrap;html=1;fillColor=#FF9999;" vertex="1" parent="1">
          <mxGeometry x="1600" y="270" width="80" height="80" as="geometry" />
        </mxCell>
        <mxCell id="eqRMLn1STed8k_l_ULK4-31" value="" style="edgeStyle=orthogonalEdgeStyle;rounded=0;orthogonalLoop=1;jettySize=auto;html=1;fillColor=#A9C4EB;endArrow=none;" edge="1" parent="1" source="eqRMLn1STed8k_l_ULK4-17" target="eqRMLn1STed8k_l_ULK4-30">
          <mxGeometry relative="1" as="geometry" />
        </mxCell>
        <mxCell id="eqRMLn1STed8k_l_ULK4-44" style="edgeStyle=orthogonalEdgeStyle;rounded=0;orthogonalLoop=1;jettySize=auto;html=1;entryX=0;entryY=0.5;entryDx=0;entryDy=0;fillColor=#A9C4EB;endArrow=none;" edge="1" parent="1" source="eqRMLn1STed8k_l_ULK4-17" target="eqRMLn1STed8k_l_ULK4-42">
          <mxGeometry relative="1" as="geometry" />
        </mxCell>
        <mxCell id="eqRMLn1STed8k_l_ULK4-17" value="Item" style="rounded=0;whiteSpace=wrap;html=1;fillColor=#FFD966;" vertex="1" parent="1">
          <mxGeometry x="1580" y="710" width="120" height="60" as="geometry" />
        </mxCell>
        <mxCell id="eqRMLn1STed8k_l_ULK4-26" style="edgeStyle=orthogonalEdgeStyle;rounded=0;orthogonalLoop=1;jettySize=auto;html=1;entryX=0.25;entryY=0;entryDx=0;entryDy=0;fillColor=#A9C4EB;endArrow=none;" edge="1" parent="1" source="eqRMLn1STed8k_l_ULK4-20" target="eqRMLn1STed8k_l_ULK4-17">
          <mxGeometry relative="1" as="geometry" />
        </mxCell>
        <mxCell id="eqRMLn1STed8k_l_ULK4-20" value="&lt;u&gt;ItemID&lt;/u&gt;" style="ellipse;whiteSpace=wrap;html=1;fillColor=#A9C4EB;" vertex="1" parent="1">
          <mxGeometry x="1450" y="670" width="120" height="40" as="geometry" />
        </mxCell>
        <mxCell id="eqRMLn1STed8k_l_ULK4-29" style="edgeStyle=orthogonalEdgeStyle;rounded=0;orthogonalLoop=1;jettySize=auto;html=1;entryX=0.25;entryY=1;entryDx=0;entryDy=0;fillColor=#A9C4EB;endArrow=none;" edge="1" parent="1" source="eqRMLn1STed8k_l_ULK4-23" target="eqRMLn1STed8k_l_ULK4-17">
          <mxGeometry relative="1" as="geometry" />
        </mxCell>
        <mxCell id="eqRMLn1STed8k_l_ULK4-23" value="Price" style="ellipse;whiteSpace=wrap;html=1;fillColor=#A9C4EB;" vertex="1" parent="1">
          <mxGeometry x="1450" y="770" width="120" height="40" as="geometry" />
        </mxCell>
        <mxCell id="eqRMLn1STed8k_l_ULK4-27" style="edgeStyle=orthogonalEdgeStyle;rounded=0;orthogonalLoop=1;jettySize=auto;html=1;entryX=0.75;entryY=0;entryDx=0;entryDy=0;fillColor=#A9C4EB;endArrow=none;" edge="1" parent="1" source="eqRMLn1STed8k_l_ULK4-24" target="eqRMLn1STed8k_l_ULK4-17">
          <mxGeometry relative="1" as="geometry" />
        </mxCell>
        <mxCell id="eqRMLn1STed8k_l_ULK4-24" value="Name" style="ellipse;whiteSpace=wrap;html=1;fillColor=#A9C4EB;" vertex="1" parent="1">
          <mxGeometry x="1710" y="670" width="120" height="40" as="geometry" />
        </mxCell>
        <mxCell id="eqRMLn1STed8k_l_ULK4-39" value="" style="edgeStyle=orthogonalEdgeStyle;rounded=0;orthogonalLoop=1;jettySize=auto;html=1;fillColor=#A9C4EB;endArrow=none;" edge="1" parent="1" target="eqRMLn1STed8k_l_ULK4-32">
          <mxGeometry relative="1" as="geometry">
            <mxPoint x="1640" y="885" as="sourcePoint" />
          </mxGeometry>
        </mxCell>
        <mxCell id="eqRMLn1STed8k_l_ULK4-30" value="produced by" style="rhombus;whiteSpace=wrap;html=1;fillColor=#FF9999;" vertex="1" parent="1">
          <mxGeometry x="1600" y="830" width="80" height="80" as="geometry" />
        </mxCell>
        <mxCell id="eqRMLn1STed8k_l_ULK4-32" value="Company" style="rounded=0;whiteSpace=wrap;html=1;fillColor=#FFD966;" vertex="1" parent="1">
          <mxGeometry x="1580" y="955" width="120" height="60" as="geometry" />
        </mxCell>
        <mxCell id="eqRMLn1STed8k_l_ULK4-40" value="" style="edgeStyle=orthogonalEdgeStyle;rounded=0;orthogonalLoop=1;jettySize=auto;html=1;fillColor=#A9C4EB;endArrow=none;" edge="1" parent="1" source="eqRMLn1STed8k_l_ULK4-34" target="eqRMLn1STed8k_l_ULK4-32">
          <mxGeometry relative="1" as="geometry" />
        </mxCell>
        <mxCell id="eqRMLn1STed8k_l_ULK4-34" value="&lt;u&gt;CompanyID&lt;/u&gt;" style="ellipse;whiteSpace=wrap;html=1;fillColor=#A9C4EB;" vertex="1" parent="1">
          <mxGeometry x="1430" y="965" width="120" height="40" as="geometry" />
        </mxCell>
        <mxCell id="eqRMLn1STed8k_l_ULK4-41" value="" style="edgeStyle=orthogonalEdgeStyle;rounded=0;orthogonalLoop=1;jettySize=auto;html=1;fillColor=#A9C4EB;endArrow=none;" edge="1" parent="1" source="eqRMLn1STed8k_l_ULK4-36" target="eqRMLn1STed8k_l_ULK4-32">
          <mxGeometry relative="1" as="geometry" />
        </mxCell>
        <mxCell id="eqRMLn1STed8k_l_ULK4-36" value="Company Name" style="ellipse;whiteSpace=wrap;html=1;fillColor=#A9C4EB;" vertex="1" parent="1">
          <mxGeometry x="1720" y="965" width="120" height="40" as="geometry" />
        </mxCell>
        <mxCell id="eqRMLn1STed8k_l_ULK4-46" value="" style="edgeStyle=orthogonalEdgeStyle;rounded=0;orthogonalLoop=1;jettySize=auto;html=1;fillColor=#A9C4EB;endArrow=none;" edge="1" parent="1" source="eqRMLn1STed8k_l_ULK4-42" target="eqRMLn1STed8k_l_ULK4-45">
          <mxGeometry relative="1" as="geometry" />
        </mxCell>
        <mxCell id="eqRMLn1STed8k_l_ULK4-89" value="" style="edgeStyle=orthogonalEdgeStyle;rounded=0;orthogonalLoop=1;jettySize=auto;html=1;" edge="1" parent="1" source="eqRMLn1STed8k_l_ULK4-42" target="eqRMLn1STed8k_l_ULK4-45">
          <mxGeometry relative="1" as="geometry" />
        </mxCell>
        <mxCell id="eqRMLn1STed8k_l_ULK4-42" value="stored on" style="rhombus;whiteSpace=wrap;html=1;fillColor=#FF9999;" vertex="1" parent="1">
          <mxGeometry x="1840" y="700" width="80" height="80" as="geometry" />
        </mxCell>
        <mxCell id="eqRMLn1STed8k_l_ULK4-45" value="Shopping Cart" style="rounded=0;whiteSpace=wrap;html=1;fillColor=#FFD966;" vertex="1" parent="1">
          <mxGeometry x="1990" y="710" width="120" height="60" as="geometry" />
        </mxCell>
        <mxCell id="eqRMLn1STed8k_l_ULK4-51" value="" style="edgeStyle=orthogonalEdgeStyle;rounded=0;orthogonalLoop=1;jettySize=auto;html=1;fillColor=#A9C4EB;endArrow=none;" edge="1" parent="1" source="eqRMLn1STed8k_l_ULK4-47" target="eqRMLn1STed8k_l_ULK4-45">
          <mxGeometry relative="1" as="geometry" />
        </mxCell>
        <mxCell id="eqRMLn1STed8k_l_ULK4-47" value="Total-Price" style="ellipse;whiteSpace=wrap;html=1;fillColor=#A9C4EB;" vertex="1" parent="1">
          <mxGeometry x="2150" y="720" width="120" height="40" as="geometry" />
        </mxCell>
        <mxCell id="eqRMLn1STed8k_l_ULK4-50" value="" style="edgeStyle=orthogonalEdgeStyle;rounded=0;orthogonalLoop=1;jettySize=auto;html=1;fillColor=#A9C4EB;endArrow=none;" edge="1" parent="1" source="eqRMLn1STed8k_l_ULK4-48" target="eqRMLn1STed8k_l_ULK4-45">
          <mxGeometry relative="1" as="geometry" />
        </mxCell>
        <mxCell id="eqRMLn1STed8k_l_ULK4-48" value="Quantity" style="ellipse;whiteSpace=wrap;html=1;fillColor=#A9C4EB;" vertex="1" parent="1">
          <mxGeometry x="1990" y="620" width="120" height="40" as="geometry" />
        </mxCell>
        <mxCell id="eqRMLn1STed8k_l_ULK4-52" value="" style="edgeStyle=orthogonalEdgeStyle;rounded=0;orthogonalLoop=1;jettySize=auto;html=1;fillColor=#A9C4EB;endArrow=none;" edge="1" parent="1" source="eqRMLn1STed8k_l_ULK4-49" target="eqRMLn1STed8k_l_ULK4-45">
          <mxGeometry relative="1" as="geometry" />
        </mxCell>
        <mxCell id="eqRMLn1STed8k_l_ULK4-49" value="&lt;u&gt;CartID&lt;/u&gt;" style="ellipse;whiteSpace=wrap;html=1;fillColor=#A9C4EB;" vertex="1" parent="1">
          <mxGeometry x="1990" y="820" width="120" height="40" as="geometry" />
        </mxCell>
        <mxCell id="eqRMLn1STed8k_l_ULK4-53" value="Credit Card" style="rounded=0;whiteSpace=wrap;html=1;fillColor=#FFD966;" vertex="1" parent="1">
          <mxGeometry x="1990" y="140" width="120" height="60" as="geometry" />
        </mxCell>
        <mxCell id="eqRMLn1STed8k_l_ULK4-65" value="" style="edgeStyle=orthogonalEdgeStyle;rounded=0;orthogonalLoop=1;jettySize=auto;html=1;fillColor=#A9C4EB;endArrow=none;" edge="1" parent="1" source="eqRMLn1STed8k_l_ULK4-57" target="eqRMLn1STed8k_l_ULK4-53">
          <mxGeometry relative="1" as="geometry" />
        </mxCell>
        <mxCell id="eqRMLn1STed8k_l_ULK4-57" value="Card Number" style="ellipse;whiteSpace=wrap;html=1;fillColor=#A9C4EB;" vertex="1" parent="1">
          <mxGeometry x="1990" y="80" width="120" height="40" as="geometry" />
        </mxCell>
        <mxCell id="eqRMLn1STed8k_l_ULK4-58" style="edgeStyle=orthogonalEdgeStyle;rounded=0;orthogonalLoop=1;jettySize=auto;html=1;entryX=1;entryY=0.25;entryDx=0;entryDy=0;fillColor=#A9C4EB;endArrow=none;" edge="1" parent="1" source="eqRMLn1STed8k_l_ULK4-59" target="eqRMLn1STed8k_l_ULK4-53">
          <mxGeometry relative="1" as="geometry" />
        </mxCell>
        <mxCell id="eqRMLn1STed8k_l_ULK4-59" value="&lt;u&gt;CreditCardID&lt;/u&gt;" style="ellipse;whiteSpace=wrap;html=1;fillColor=#A9C4EB;" vertex="1" parent="1">
          <mxGeometry x="2150" y="100" width="120" height="40" as="geometry" />
        </mxCell>
        <mxCell id="eqRMLn1STed8k_l_ULK4-60" style="edgeStyle=orthogonalEdgeStyle;rounded=0;orthogonalLoop=1;jettySize=auto;html=1;entryX=1;entryY=0.75;entryDx=0;entryDy=0;fillColor=#A9C4EB;endArrow=none;" edge="1" parent="1" source="eqRMLn1STed8k_l_ULK4-61" target="eqRMLn1STed8k_l_ULK4-53">
          <mxGeometry relative="1" as="geometry" />
        </mxCell>
        <mxCell id="eqRMLn1STed8k_l_ULK4-61" value="Verification Status" style="ellipse;whiteSpace=wrap;html=1;fillColor=#A9C4EB;" vertex="1" parent="1">
          <mxGeometry x="2150" y="200" width="120" height="40" as="geometry" />
        </mxCell>
        <mxCell id="eqRMLn1STed8k_l_ULK4-62" style="edgeStyle=orthogonalEdgeStyle;rounded=0;orthogonalLoop=1;jettySize=auto;html=1;entryX=0.5;entryY=1;entryDx=0;entryDy=0;fillColor=#A9C4EB;endArrow=none;" edge="1" parent="1" source="eqRMLn1STed8k_l_ULK4-63" target="eqRMLn1STed8k_l_ULK4-53">
          <mxGeometry relative="1" as="geometry" />
        </mxCell>
        <mxCell id="eqRMLn1STed8k_l_ULK4-63" value="Expiry Date" style="ellipse;whiteSpace=wrap;html=1;fillColor=#A9C4EB;" vertex="1" parent="1">
          <mxGeometry x="1990" y="220" width="120" height="40" as="geometry" />
        </mxCell>
        <mxCell id="eqRMLn1STed8k_l_ULK4-67" value="" style="edgeStyle=orthogonalEdgeStyle;rounded=0;orthogonalLoop=1;jettySize=auto;html=1;fillColor=#A9C4EB;endArrow=none;" edge="1" parent="1" source="eqRMLn1STed8k_l_ULK4-64" target="eqRMLn1STed8k_l_ULK4-53">
          <mxGeometry relative="1" as="geometry" />
        </mxCell>
        <mxCell id="eqRMLn1STed8k_l_ULK4-64" value="pay via" style="rhombus;whiteSpace=wrap;html=1;fillColor=#FF9999;" vertex="1" parent="1">
          <mxGeometry x="1850" y="130" width="80" height="80" as="geometry" />
        </mxCell>
        <mxCell id="eqRMLn1STed8k_l_ULK4-72" value="" style="edgeStyle=orthogonalEdgeStyle;rounded=0;orthogonalLoop=1;jettySize=auto;html=1;endArrow=none;fillColor=#A9C4EB;" edge="1" parent="1" source="eqRMLn1STed8k_l_ULK4-69" target="eqRMLn1STed8k_l_ULK4-70">
          <mxGeometry relative="1" as="geometry" />
        </mxCell>
        <mxCell id="eqRMLn1STed8k_l_ULK4-69" value="Order" style="rounded=0;whiteSpace=wrap;html=1;fillColor=#FFD966;" vertex="1" parent="1">
          <mxGeometry x="1580" y="430" width="120" height="60" as="geometry" />
        </mxCell>
        <mxCell id="eqRMLn1STed8k_l_ULK4-71" value="" style="edgeStyle=orthogonalEdgeStyle;rounded=0;orthogonalLoop=1;jettySize=auto;html=1;endArrow=none;fillColor=#A9C4EB;" edge="1" parent="1" source="eqRMLn1STed8k_l_ULK4-70" target="eqRMLn1STed8k_l_ULK4-17">
          <mxGeometry relative="1" as="geometry" />
        </mxCell>
        <mxCell id="eqRMLn1STed8k_l_ULK4-70" value="has" style="rhombus;whiteSpace=wrap;html=1;fillColor=#FF9999;" vertex="1" parent="1">
          <mxGeometry x="1600" y="560" width="80" height="80" as="geometry" />
        </mxCell>
        <mxCell id="eqRMLn1STed8k_l_ULK4-79" style="edgeStyle=orthogonalEdgeStyle;rounded=0;orthogonalLoop=1;jettySize=auto;html=1;entryX=0.75;entryY=0;entryDx=0;entryDy=0;endArrow=none;fillColor=#A9C4EB;" edge="1" parent="1" source="eqRMLn1STed8k_l_ULK4-74" target="eqRMLn1STed8k_l_ULK4-69">
          <mxGeometry relative="1" as="geometry" />
        </mxCell>
        <mxCell id="eqRMLn1STed8k_l_ULK4-74" value="OrderID " style="ellipse;whiteSpace=wrap;html=1;fillColor=#A9C4EB;fontStyle=4" vertex="1" parent="1">
          <mxGeometry x="1740" y="380" width="120" height="40" as="geometry" />
        </mxCell>
        <mxCell id="eqRMLn1STed8k_l_ULK4-80" style="edgeStyle=orthogonalEdgeStyle;rounded=0;orthogonalLoop=1;jettySize=auto;html=1;entryX=0.75;entryY=1;entryDx=0;entryDy=0;endArrow=none;fillColor=#A9C4EB;" edge="1" parent="1" source="eqRMLn1STed8k_l_ULK4-75" target="eqRMLn1STed8k_l_ULK4-69">
          <mxGeometry relative="1" as="geometry" />
        </mxCell>
        <mxCell id="eqRMLn1STed8k_l_ULK4-75" value=" Order Date" style="ellipse;whiteSpace=wrap;html=1;fillColor=#A9C4EB;" vertex="1" parent="1">
          <mxGeometry x="1740" y="500" width="120" height="40" as="geometry" />
        </mxCell>
        <mxCell id="eqRMLn1STed8k_l_ULK4-78" value="" style="edgeStyle=orthogonalEdgeStyle;rounded=0;orthogonalLoop=1;jettySize=auto;html=1;endArrow=none;fillColor=#A9C4EB;" edge="1" parent="1" source="eqRMLn1STed8k_l_ULK4-77" target="eqRMLn1STed8k_l_ULK4-69">
          <mxGeometry relative="1" as="geometry" />
        </mxCell>
        <mxCell id="eqRMLn1STed8k_l_ULK4-77" value=" Payment Status" style="ellipse;whiteSpace=wrap;html=1;fillColor=#A9C4EB;" vertex="1" parent="1">
          <mxGeometry x="1420" y="440" width="120" height="40" as="geometry" />
        </mxCell>
        <mxCell id="eqRMLn1STed8k_l_ULK4-81" value="1" style="text;html=1;align=center;verticalAlign=middle;resizable=0;points=[];autosize=1;strokeColor=none;fillColor=none;" vertex="1" parent="1">
          <mxGeometry x="1630" y="240" width="30" height="30" as="geometry" />
        </mxCell>
        <mxCell id="eqRMLn1STed8k_l_ULK4-82" value="N" style="text;html=1;align=center;verticalAlign=middle;resizable=0;points=[];autosize=1;strokeColor=none;fillColor=none;" vertex="1" parent="1">
          <mxGeometry x="1631" y="350" width="30" height="30" as="geometry" />
        </mxCell>
        <mxCell id="eqRMLn1STed8k_l_ULK4-84" value="(1, N)" style="text;html=1;align=center;verticalAlign=middle;resizable=0;points=[];autosize=1;strokeColor=none;fillColor=none;" vertex="1" parent="1">
          <mxGeometry x="1631" y="636" width="50" height="30" as="geometry" />
        </mxCell>
        <mxCell id="eqRMLn1STed8k_l_ULK4-85" value="1" style="text;html=1;align=center;verticalAlign=middle;resizable=0;points=[];autosize=1;strokeColor=none;fillColor=none;" vertex="1" parent="1">
          <mxGeometry x="1631" y="530" width="30" height="30" as="geometry" />
        </mxCell>
        <mxCell id="eqRMLn1STed8k_l_ULK4-86" value="1" style="text;html=1;align=center;verticalAlign=middle;resizable=0;points=[];autosize=1;strokeColor=none;fillColor=none;" vertex="1" parent="1">
          <mxGeometry x="1910" y="720" width="30" height="30" as="geometry" />
        </mxCell>
        <mxCell id="eqRMLn1STed8k_l_ULK4-88" value="N" style="text;html=1;align=center;verticalAlign=middle;resizable=0;points=[];autosize=1;strokeColor=none;fillColor=none;" vertex="1" parent="1">
          <mxGeometry x="1810" y="720" width="30" height="30" as="geometry" />
        </mxCell>
        <mxCell id="eqRMLn1STed8k_l_ULK4-90" value="1" style="text;html=1;align=center;verticalAlign=middle;resizable=0;points=[];autosize=1;strokeColor=none;fillColor=none;" vertex="1" parent="1">
          <mxGeometry x="1631" y="910" width="30" height="30" as="geometry" />
        </mxCell>
        <mxCell id="eqRMLn1STed8k_l_ULK4-91" value="N" style="text;html=1;align=center;verticalAlign=middle;resizable=0;points=[];autosize=1;strokeColor=none;fillColor=none;" vertex="1" parent="1">
          <mxGeometry x="1631" y="810" width="30" height="30" as="geometry" />
        </mxCell>
        <mxCell id="eqRMLn1STed8k_l_ULK4-92" value="1" style="text;html=1;align=center;verticalAlign=middle;resizable=0;points=[];autosize=1;strokeColor=none;fillColor=none;" vertex="1" parent="1">
          <mxGeometry x="1820" y="150" width="30" height="30" as="geometry" />
        </mxCell>
        <mxCell id="eqRMLn1STed8k_l_ULK4-93" value="1" style="text;html=1;align=center;verticalAlign=middle;resizable=0;points=[];autosize=1;strokeColor=none;fillColor=none;" vertex="1" parent="1">
          <mxGeometry x="1930" y="150" width="30" height="30" as="geometry" />
        </mxCell>
      </root>
    </mxGraphModel>
  </diagram>
</mxfile>
